# xmcd
#
# Track frame offsets: 
#        150
#        16320
#        38102
#        46636
#        69596
#        87794
#        110103
#        127138
#        145395
#
# Disc length: 2309 seconds
#
# Revision: 0
# Processed by: cddbd v1.5.2PL0 Copyright (c) Steve Scherf et al.
# Submitted via: ExactAudioCopyFreeDBPlugin 1.0
#
DISCID=7a090309
DTITLE=Lucio Dalla - Francesco De Gregori - Banana Republic
DYEAR=1979
DGENRE=Folk/Rock
TTITLE0=Banana Republic
TTITLE1=Un gelato al limon
TTITLE2=La canzone di Orlando
TTITLE3=Bufalo Bill
TTITLE4=Piazza Grande
TTITLE5=4-3-1943
TTITLE6=Santa Lucia
TTITLE7=Quattro cani
TTITLE8=Addio a Napoli - Ma come fanno i marinai
EXTD=Francesco De Gregori Master\nBanana Republic\n\n"Banana republic"
EXTD=di De Gregori Goodman Rothernel\n"Gelato al limon" di Paolo Cont
EXTD=e\n"Addio a Napoli" di G.T. Cottreau\n\n(P) 1979 Sony Music Enter
EXTD=tainment Italy S.p.A.\n© 2017 GEDI Gruppo Editoriale S.p.A.\nsu l
EXTD=icenza Sony Music
EXTT0=
EXTT1=
EXTT2=
EXTT3=
EXTT4=
EXTT5=
EXTT6=
EXTT7=
EXTT8=
PLAYORDER=
